<svg width="150" height="150" viewBox="0 0 150 150" fill="none" xmlns="http://www.w3.org/2000/svg">
<path d="M66.6824 0.35788C52.5929 2.34319 39.8028 7.5461 29.0646 15.8297C24.8241 19.0473 16.4798 27.5362 14.0175 31.1645C13.1284 32.4653 12.034 33.766 11.6237 34.0398C11.2817 34.3137 10.9397 34.7929 10.8713 35.0667C10.8713 35.3406 9.22979 38.832 7.3147 42.8026C-8.27959 74.91 1.70623 113.932 31.1165 135.976C36.4514 139.946 48.9679 145.834 55.4655 147.477C74.1376 152.2 91.4418 150.284 108.746 141.795C120.579 135.907 129.402 128.103 137.267 116.465C146.364 103.184 151.425 83.262 149.647 68.4064C146.295 41.365 123.178 20.1426 94.246 17.4727C61.6895 14.5289 36.2462 34.7929 33.5104 65.7365C32.5528 76.7584 36.383 87.9173 43.633 95.1055C48.5575 100.103 53.0032 102.568 60.39 104.484C76.0527 108.455 92.2626 102.91 99.1705 91.1348C107.241 77.3745 101.496 59.0959 87.338 53.6876C74.3428 48.7586 60.6636 55.673 56.765 69.1594C52.9348 82.1667 63.1259 95.7901 77.0102 96.2693C79.6093 96.4062 80.2249 96.6116 79.3357 97.0908C77.0786 98.3231 67.8452 97.2962 63.7414 95.3108C59.0905 92.9832 54.166 87.7803 51.7721 82.6459C50.1306 79.2229 49.9254 77.9222 49.9254 71.8978C49.9938 63.3404 51.5669 58.8221 56.5598 53.4138C62.6471 46.7048 70.3758 43.4187 80.0197 43.4187C98.3498 43.4187 112.508 57.9321 112.508 76.6899C112.508 97.8438 94.588 113.658 71.8805 112.494C65.8617 112.22 65.7933 112.22 69.0763 113.042C77.3522 115.027 87.8168 113.726 96.6399 109.482C103.89 105.99 111.961 97.9808 115.517 90.7241C121.331 78.7437 121.468 66.2157 115.791 54.5091C113.192 49.1693 104.437 39.9958 99.2389 37.1205C96.0927 35.3406 88.022 32.3283 84.8074 31.6438C84.055 31.4384 85.0126 31.3015 86.8593 31.233C92.2626 31.1645 99.3757 32.9445 105.668 36.0251C113.807 40.0642 121.399 47.6632 125.435 55.8099C132.821 70.8709 131.795 88.6018 122.699 104.279C119.416 109.756 109.772 119.34 103.958 122.763C93.8357 128.719 80.772 131.389 69.2815 129.814C48.1471 127.007 30.9797 114.753 21.8831 95.9954C14.7015 81.0029 13.6071 65.2572 18.6 49.3062C25.4396 27.6047 42.8806 10.8321 64.4938 5.01311C71.0598 3.30162 86.7225 2.54857 93.6989 3.71237C96.3663 4.12314 99.4441 4.67081 100.538 4.80772C104.3 5.42386 95.272 2.41165 90.1423 1.38477C83.7814 0.0840302 72.4277 -0.395172 66.6824 0.35788Z" fill="#FF00B8"/>
</svg>
